<svg width="167" height="40" viewBox="0 0 167 40" fill="none" xmlns="http://www.w3.org/2000/svg">
<rect x="52.3094" y="5" width="0.396297" height="30.1186" fill="white"/>
<path d="M64.857 15.3324H65.8013V22H64.857V15.3324ZM75.9314 15.3324H76.8756V22H75.9198L72.0391 16.8755V22H71.0948V15.3324H72.0506L75.9314 20.4454V15.3324ZM83.1125 16.1961V21.1363H84.7363C85.0971 21.1363 85.4157 21.0787 85.6921 20.9636C85.9761 20.8408 86.2179 20.6719 86.4175 20.4569C86.6172 20.2343 86.7669 19.9732 86.8667 19.6738C86.9741 19.3667 87.0279 19.0328 87.0279 18.672C87.0279 18.3111 86.9741 17.981 86.8667 17.6816C86.7669 17.3745 86.6172 17.1135 86.4175 16.8986C86.2179 16.6759 85.9761 16.5032 85.6921 16.3804C85.4157 16.2575 85.0971 16.1961 84.7363 16.1961H83.1125ZM87.9722 18.6605C87.9722 19.1364 87.8992 19.5779 87.7534 19.9848C87.6075 20.3916 87.3925 20.7448 87.1085 21.0442C86.8321 21.3436 86.4905 21.5778 86.0836 21.7467C85.6767 21.9156 85.2122 22 84.6902 22H82.1683V15.3324H84.6902C85.2122 15.3324 85.6767 15.4169 86.0836 15.5858C86.4905 15.7547 86.8321 15.9888 87.1085 16.2882C87.3925 16.5876 87.6075 16.9408 87.7534 17.3477C87.8992 17.7469 87.9722 18.1845 87.9722 18.6605ZM95.6764 22.1267C95.6534 22.1267 95.5689 22.1228 95.4231 22.1152C95.2772 22.1075 95.1045 22.0768 94.9049 22.023C94.7053 21.977 94.4903 21.9002 94.26 21.7927C94.0374 21.6852 93.8301 21.5317 93.6381 21.3321C93.4462 21.1325 93.285 20.8791 93.1545 20.5721C93.0316 20.265 92.9702 19.8888 92.9702 19.4435V15.3324H93.9145V19.4435C93.9145 19.5126 93.926 19.647 93.9491 19.8466C93.9721 20.0462 94.0412 20.2535 94.1563 20.4684C94.2715 20.6757 94.4481 20.8599 94.6861 21.0212C94.9241 21.1824 95.2542 21.263 95.6764 21.263C96.1063 21.263 96.4364 21.1824 96.6668 21.0212C96.9048 20.8599 97.0813 20.6757 97.1965 20.4684C97.3116 20.2535 97.3807 20.0462 97.4038 19.8466C97.4268 19.647 97.4383 19.5126 97.4383 19.4435V15.3324H98.3826V19.4435C98.3826 19.8888 98.3173 20.265 98.1868 20.5721C98.064 20.8791 97.9066 21.1325 97.7147 21.3321C97.5228 21.5317 97.3116 21.6852 97.0813 21.7927C96.8587 21.9002 96.6476 21.977 96.448 22.023C96.2484 22.0768 96.0756 22.1075 95.9298 22.1152C95.7839 22.1228 95.6994 22.1267 95.6764 22.1267ZM105.841 22.1267C105.472 22.1267 105.15 22.0883 104.873 22.0115C104.597 21.9347 104.355 21.8426 104.148 21.7351C103.948 21.62 103.779 21.4971 103.641 21.3666C103.503 21.2284 103.392 21.1018 103.307 20.9866L103.987 20.4454C104.071 20.5375 104.179 20.6335 104.309 20.7333C104.44 20.8254 104.586 20.9137 104.747 20.9981C104.916 21.0749 105.096 21.1402 105.288 21.1939C105.48 21.24 105.683 21.263 105.898 21.263C106.205 21.263 106.451 21.2208 106.635 21.1363C106.827 21.0519 106.973 20.9559 107.073 20.8484C107.18 20.7333 107.253 20.622 107.292 20.5145C107.33 20.3993 107.349 20.3187 107.349 20.2726C107.349 20.0423 107.253 19.8581 107.061 19.7199C106.87 19.5817 106.628 19.4589 106.336 19.3514C106.044 19.2439 105.729 19.1364 105.392 19.029C105.062 18.9215 104.751 18.7833 104.459 18.6144C104.167 18.4455 103.925 18.2305 103.733 17.9695C103.541 17.7085 103.446 17.3707 103.446 16.9561C103.446 16.8026 103.476 16.626 103.538 16.4264C103.607 16.2268 103.722 16.0387 103.883 15.8621C104.052 15.6779 104.282 15.5244 104.574 15.4015C104.866 15.2787 105.242 15.2173 105.703 15.2173C106.033 15.2173 106.324 15.2518 106.578 15.3209C106.831 15.39 107.05 15.4745 107.234 15.5743C107.418 15.6741 107.572 15.7815 107.695 15.8967C107.818 16.0119 107.914 16.1155 107.983 16.2076C107.852 16.2921 107.741 16.3765 107.649 16.461C107.557 16.5377 107.449 16.6183 107.326 16.7028C107.104 16.4802 106.835 16.3228 106.52 16.2306C106.213 16.1308 105.914 16.0809 105.622 16.0809C105.461 16.0809 105.307 16.1001 105.161 16.1385C105.016 16.1769 104.885 16.2383 104.77 16.3228C104.655 16.3995 104.563 16.4993 104.493 16.6222C104.424 16.7373 104.39 16.8755 104.39 17.0367C104.39 17.3208 104.486 17.5434 104.678 17.7047C104.87 17.8659 105.111 18.0041 105.403 18.1192C105.695 18.2344 106.006 18.3419 106.336 18.4417C106.674 18.5338 106.989 18.6566 107.28 18.8102C107.572 18.9637 107.814 19.1595 108.006 19.3975C108.198 19.6354 108.294 19.954 108.294 20.3533C108.294 20.5068 108.251 20.6872 108.167 20.8945C108.09 21.0941 107.956 21.286 107.764 21.4703C107.58 21.6545 107.33 21.8119 107.015 21.9424C106.701 22.0653 106.309 22.1267 105.841 22.1267ZM112.616 16.1961V15.3324H118.005V16.1961H115.782V22H114.838V16.1961H112.616ZM127.985 17.6356C127.985 18.0271 127.931 18.3572 127.823 18.6259C127.716 18.8869 127.581 19.1019 127.42 19.2708C127.259 19.4397 127.079 19.5702 126.879 19.6623C126.687 19.7544 126.503 19.8235 126.326 19.8696L127.985 22H126.902L125.301 19.9502H123.954V22H123.01V15.3324H125.578C125.639 15.3324 125.739 15.3363 125.877 15.3439C126.015 15.3516 126.173 15.3785 126.349 15.4246C126.534 15.4706 126.722 15.5397 126.914 15.6318C127.106 15.724 127.278 15.8545 127.432 16.0234C127.593 16.1923 127.724 16.4072 127.823 16.6682C127.931 16.9293 127.985 17.2517 127.985 17.6356ZM123.954 19.0865H125.601C125.808 19.0865 125.996 19.0635 126.165 19.0174C126.342 18.9637 126.495 18.8831 126.626 18.7756C126.756 18.6605 126.856 18.5108 126.925 18.3265C127.002 18.1423 127.04 17.9158 127.04 17.6471C127.04 17.3784 127.002 17.1519 126.925 16.9677C126.856 16.7834 126.756 16.6337 126.626 16.5185C126.495 16.4034 126.342 16.3228 126.165 16.2767C125.996 16.223 125.808 16.1961 125.601 16.1961H123.954V19.0865ZM132.801 15.3324H133.746V22H132.801V15.3324ZM143.415 21.1363V22H139.039V15.3324H143.415V16.1961H139.983V18.315H143.162V19.1787H139.983V21.1363H143.415ZM150.761 22.1267C150.392 22.1267 150.07 22.0883 149.794 22.0115C149.517 21.9347 149.275 21.8426 149.068 21.7351C148.869 21.62 148.7 21.4971 148.561 21.3666C148.423 21.2284 148.312 21.1018 148.227 20.9866L148.907 20.4454C148.991 20.5375 149.099 20.6335 149.229 20.7333C149.36 20.8254 149.506 20.9137 149.667 20.9981C149.836 21.0749 150.016 21.1402 150.208 21.1939C150.4 21.24 150.604 21.263 150.818 21.263C151.126 21.263 151.371 21.2208 151.555 21.1363C151.747 21.0519 151.893 20.9559 151.993 20.8484C152.101 20.7333 152.173 20.622 152.212 20.5145C152.25 20.3993 152.269 20.3187 152.269 20.2726C152.269 20.0423 152.173 19.8581 151.982 19.7199C151.79 19.5817 151.548 19.4589 151.256 19.3514C150.964 19.2439 150.65 19.1364 150.312 19.029C149.982 18.9215 149.671 18.7833 149.379 18.6144C149.087 18.4455 148.845 18.2305 148.654 17.9695C148.462 17.7085 148.366 17.3707 148.366 16.9561C148.366 16.8026 148.396 16.626 148.458 16.4264C148.527 16.2268 148.642 16.0387 148.803 15.8621C148.972 15.6779 149.202 15.5244 149.494 15.4015C149.786 15.2787 150.162 15.2173 150.623 15.2173C150.953 15.2173 151.245 15.2518 151.498 15.3209C151.751 15.39 151.97 15.4745 152.154 15.5743C152.339 15.6741 152.492 15.7815 152.615 15.8967C152.738 16.0119 152.834 16.1155 152.903 16.2076C152.772 16.2921 152.661 16.3765 152.569 16.461C152.477 16.5377 152.369 16.6183 152.246 16.7028C152.024 16.4802 151.755 16.3228 151.44 16.2306C151.133 16.1308 150.834 16.0809 150.542 16.0809C150.381 16.0809 150.227 16.1001 150.081 16.1385C149.936 16.1769 149.805 16.2383 149.69 16.3228C149.575 16.3995 149.483 16.4993 149.414 16.6222C149.344 16.7373 149.31 16.8755 149.31 17.0367C149.31 17.3208 149.406 17.5434 149.598 17.7047C149.79 17.8659 150.032 18.0041 150.323 18.1192C150.615 18.2344 150.926 18.3419 151.256 18.4417C151.594 18.5338 151.909 18.6566 152.2 18.8102C152.492 18.9637 152.734 19.1595 152.926 19.3975C153.118 19.6354 153.214 19.954 153.214 20.3533C153.214 20.5068 153.172 20.6872 153.087 20.8945C153.01 21.0941 152.876 21.286 152.684 21.4703C152.5 21.6545 152.25 21.8119 151.936 21.9424C151.621 22.0653 151.229 22.1267 150.761 22.1267Z" fill="white"/>
<path d="M163.376 22.0017H162.731L162.04 21.115H161.315V22.0017H160.75V18.7658H161.971C162.063 18.7658 162.186 18.7735 162.34 18.7889C162.493 18.7965 162.639 18.8349 162.777 18.904C162.923 18.9731 163.046 19.0844 163.146 19.238C163.253 19.3838 163.307 19.595 163.307 19.8713C163.307 20.2398 163.257 20.5085 163.157 20.6774C163.057 20.8386 162.877 20.9576 162.616 21.0344L163.376 22.0017ZM161.315 20.5968H161.983C162.205 20.5968 162.386 20.5584 162.524 20.4817C162.67 20.3972 162.743 20.2245 162.743 19.9635C162.743 19.8099 162.72 19.6909 162.674 19.6065C162.628 19.522 162.566 19.4568 162.489 19.4107C162.42 19.3646 162.34 19.3378 162.247 19.3301C162.155 19.3147 162.067 19.3071 161.983 19.3071H161.315V20.5968ZM161.971 16.9003C162.447 16.9003 162.892 16.9924 163.307 17.1767C163.729 17.3532 164.098 17.5989 164.412 17.9137C164.727 18.2207 164.973 18.5854 165.149 19.0077C165.334 19.4299 165.426 19.879 165.426 20.355C165.426 20.831 165.334 21.2801 165.149 21.7023C164.973 22.1246 164.727 22.4931 164.412 22.8078C164.098 23.1149 163.729 23.3606 163.307 23.5448C162.892 23.7214 162.447 23.8097 161.971 23.8097C161.495 23.8097 161.046 23.7214 160.624 23.5448C160.202 23.3606 159.833 23.1149 159.518 22.8078C159.204 22.4931 158.954 22.1246 158.77 21.7023C158.593 21.2801 158.505 20.831 158.505 20.355C158.505 19.879 158.593 19.4299 158.77 19.0077C158.954 18.5854 159.204 18.2207 159.518 17.9137C159.833 17.5989 160.202 17.3532 160.624 17.1767C161.046 16.9924 161.495 16.9003 161.971 16.9003ZM161.971 23.3721C162.386 23.3721 162.777 23.2953 163.146 23.1418C163.514 22.9806 163.833 22.7656 164.102 22.4969C164.378 22.2205 164.593 21.8981 164.746 21.5296C164.908 21.1611 164.988 20.7695 164.988 20.355C164.988 19.9404 164.908 19.5489 164.746 19.1804C164.593 18.8119 164.378 18.4933 164.102 18.2246C163.833 17.9482 163.514 17.7333 163.146 17.5797C162.777 17.4185 162.386 17.3379 161.971 17.3379C161.549 17.3379 161.154 17.4185 160.785 17.5797C160.424 17.7333 160.106 17.9482 159.829 18.2246C159.561 18.4933 159.346 18.8119 159.184 19.1804C159.031 19.5489 158.954 19.9404 158.954 20.355C158.954 20.7695 159.031 21.1611 159.184 21.5296C159.346 21.8981 159.561 22.2205 159.829 22.4969C160.106 22.7656 160.424 22.9806 160.785 23.1418C161.154 23.2953 161.549 23.3721 161.971 23.3721Z" fill="white"/>
<g filter="url(#filter0_d_1770_1890)">
<path d="M14.5501 27.5021C14.0392 27.9665 13.5283 28.3265 13.0174 28.582C12.5065 28.8374 12.0188 29.0232 11.5543 29.1393C11.0898 29.2555 10.6486 29.3251 10.2305 29.3484C9.83574 29.3716 9.48739 29.3832 9.18548 29.3832C8.14042 29.3832 7.15342 29.1858 6.22447 28.791C5.31875 28.373 4.51753 27.8156 3.82082 27.1189C3.14734 26.399 2.60158 25.5745 2.18356 24.6456C1.78876 23.6934 1.59136 22.6832 1.59136 21.6149C1.59136 20.5466 1.78876 19.548 2.18356 18.619C2.60158 17.6669 3.14734 16.8424 3.82082 16.1457C4.51753 15.4258 5.31875 14.8684 6.22447 14.4736C7.15342 14.0556 8.14042 13.8466 9.18548 13.8466C9.48739 13.8466 9.83574 13.8582 10.2305 13.8814C10.6486 13.9046 11.0898 13.9743 11.5543 14.0904C12.0188 14.2065 12.5065 14.3923 13.0174 14.6478C13.5283 14.9033 14.0392 15.2632 14.5501 15.7277V8.1684H17.964V29H14.5501V27.5021ZM9.74285 26.1783C10.4163 26.1783 11.0434 26.0738 11.624 25.8648C12.2046 25.6326 12.7039 25.3191 13.1219 24.9243C13.5631 24.5062 13.9115 24.0185 14.167 23.4612C14.4224 22.9038 14.5501 22.2884 14.5501 21.6149C14.5501 20.9414 14.4224 20.326 14.167 19.7686C13.9115 19.2112 13.5631 18.7352 13.1219 18.3404C12.7039 17.9223 12.2046 17.6088 11.624 17.3998C11.0434 17.1676 10.4163 17.0514 9.74285 17.0514C9.09259 17.0514 8.47716 17.1676 7.89657 17.3998C7.31598 17.6088 6.80506 17.9223 6.36381 18.3404C5.94579 18.7352 5.60904 19.2112 5.35358 19.7686C5.12135 20.326 5.00523 20.9414 5.00523 21.6149C5.00523 22.2884 5.12135 22.9038 5.35358 23.4612C5.60904 24.0185 5.94579 24.5062 6.36381 24.9243C6.80506 25.3191 7.31598 25.6326 7.89657 25.8648C8.47716 26.0738 9.09259 26.1783 9.74285 26.1783Z" fill="white"/>
</g>
<g filter="url(#filter1_d_1770_1890)">
<path d="M32.5509 23.078H20.7765C20.9623 23.705 21.2177 24.2159 21.5429 24.6107C21.868 25.0055 22.228 25.3191 22.6228 25.5513C23.0408 25.7835 23.4704 25.9461 23.9117 26.039C24.3529 26.1319 24.7826 26.1783 25.2006 26.1783C25.5722 26.1783 25.967 26.1435 26.385 26.0738C26.7798 26.0274 27.1862 25.9461 27.6042 25.83C28.0223 25.7139 28.4519 25.5513 28.8931 25.3423L30.8091 28.0594C30.275 28.3149 29.706 28.5355 29.1022 28.7213C28.5448 28.9071 27.9294 29.0581 27.2559 29.1742C26.6056 29.3135 25.9089 29.3832 25.1658 29.3832C24.051 29.3832 23.0176 29.1974 22.0654 28.8258C21.1132 28.4542 20.2888 27.9317 19.5921 27.2582C18.8954 26.5615 18.3496 25.7371 17.9548 24.7849C17.56 23.8327 17.3626 22.7761 17.3626 21.6149C17.3626 20.5466 17.5484 19.548 17.92 18.619C18.2916 17.6669 18.8141 16.8424 19.4876 16.1457C20.1611 15.4258 20.9623 14.8684 21.8912 14.4736C22.8202 14.0556 23.842 13.8466 24.9567 13.8466C25.9321 13.8466 26.8727 14.0208 27.7784 14.3691C28.6841 14.6942 29.4854 15.2052 30.1821 15.9019C30.902 16.5754 31.471 17.423 31.889 18.4449C32.3302 19.4435 32.5509 20.6047 32.5509 21.9284V23.078ZM24.9567 17.0514C24.1439 17.0514 23.3311 17.2953 22.5183 17.783C21.7054 18.2707 21.1365 19.0603 20.8113 20.1518H29.1022C28.8003 19.0603 28.2313 18.2707 27.3952 17.783C26.5824 17.2953 25.7696 17.0514 24.9567 17.0514ZM23.2498 12.2441L25.6186 7.85488H29.5202L26.6288 12.2441H23.2498Z" fill="white"/>
</g>
<g filter="url(#filter2_d_1770_1890)">
<path d="M35.1774 8.51996H35.6777V6.55101H36.461V5.99078H34.3778V6.55101H35.1774V8.51996ZM39.6537 6.74682V8.51996H40.1541V5.99078H39.6102L38.642 7.23089L37.6739 5.99078H37.1245V8.51996H37.6304V6.74682L38.5985 7.97605H38.6856L39.6537 6.74682Z" fill="white"/>
</g>
<defs>
<filter id="filter0_d_1770_1890" x="0.00618184" y="8.1684" width="19.543" height="24.3852" filterUnits="userSpaceOnUse" color-interpolation-filters="sRGB">
<feFlood flood-opacity="0" result="BackgroundImageFix"/>
<feColorMatrix in="SourceAlpha" type="matrix" values="0 0 0 0 0 0 0 0 0 0 0 0 0 0 0 0 0 0 127 0" result="hardAlpha"/>
<feOffset dy="1.58519"/>
<feGaussianBlur stdDeviation="0.792594"/>
<feComposite in2="hardAlpha" operator="out"/>
<feColorMatrix type="matrix" values="0 0 0 0 0 0 0 0 0 0 0 0 0 0 0 0 0 0 0.06 0"/>
<feBlend mode="normal" in2="BackgroundImageFix" result="effect1_dropShadow_1770_1890"/>
<feBlend mode="normal" in="SourceGraphic" in2="effect1_dropShadow_1770_1890" result="shape"/>
</filter>
<filter id="filter1_d_1770_1890" x="15.7774" y="7.85489" width="18.3586" height="24.6987" filterUnits="userSpaceOnUse" color-interpolation-filters="sRGB">
<feFlood flood-opacity="0" result="BackgroundImageFix"/>
<feColorMatrix in="SourceAlpha" type="matrix" values="0 0 0 0 0 0 0 0 0 0 0 0 0 0 0 0 0 0 127 0" result="hardAlpha"/>
<feOffset dy="1.58519"/>
<feGaussianBlur stdDeviation="0.792594"/>
<feComposite in2="hardAlpha" operator="out"/>
<feColorMatrix type="matrix" values="0 0 0 0 0 0 0 0 0 0 0 0 0 0 0 0 0 0 0.06 0"/>
<feBlend mode="normal" in2="BackgroundImageFix" result="effect1_dropShadow_1770_1890"/>
<feBlend mode="normal" in="SourceGraphic" in2="effect1_dropShadow_1770_1890" result="shape"/>
</filter>
<filter id="filter2_d_1770_1890" x="32.7926" y="5.99078" width="8.94668" height="5.69955" filterUnits="userSpaceOnUse" color-interpolation-filters="sRGB">
<feFlood flood-opacity="0" result="BackgroundImageFix"/>
<feColorMatrix in="SourceAlpha" type="matrix" values="0 0 0 0 0 0 0 0 0 0 0 0 0 0 0 0 0 0 127 0" result="hardAlpha"/>
<feOffset dy="1.58519"/>
<feGaussianBlur stdDeviation="0.792594"/>
<feComposite in2="hardAlpha" operator="out"/>
<feColorMatrix type="matrix" values="0 0 0 0 0 0 0 0 0 0 0 0 0 0 0 0 0 0 0.06 0"/>
<feBlend mode="normal" in2="BackgroundImageFix" result="effect1_dropShadow_1770_1890"/>
<feBlend mode="normal" in="SourceGraphic" in2="effect1_dropShadow_1770_1890" result="shape"/>
</filter>
</defs>
</svg>
